<?xml version="1.0" encoding="utf-8"?>
<!-- Generator: Adobe Illustrator 17.0.0, SVG Export Plug-In . SVG Version: 6.00 Build 0)  -->
<!DOCTYPE svg PUBLIC "-//W3C//DTD SVG 1.1//EN" "http://www.w3.org/Graphics/SVG/1.1/DTD/svg11.dtd">
<svg version="1.1" id="Layer_1" xmlns="http://www.w3.org/2000/svg" xmlns:xlink="http://www.w3.org/1999/xlink" x="0px" y="0px"
	 width="488.2px" height="200px" viewBox="0 0 488.2 200" enable-background="new 0 0 488.2 200" xml:space="preserve">
<g>
	<g>
		<path fill="#261F03" d="M205.2,0h25.2c6.5,0,11.7,1.8,14.9,5c2.5,2.5,3.9,5.6,3.9,9.4v0.2c0,6.8-4,10.5-8.2,12.6
			c6.6,2.3,11.2,6.1,11.2,13.8v0.2c0,10.1-8.3,15.8-20.9,15.8h-26.1V0z M228.4,24c6.4,0,10.8-2.6,10.8-7.8v-0.2
			c0-4.5-3.7-7.1-10.1-7.1h-13.9v15H228.4z M231.4,48c6.8,0,10.9-2.8,10.9-7.9V40c0-4.8-3.7-8-11.6-8h-15.4v16H231.4z"/>
		<path fill="#261F03" d="M261.2,41V14h10v24.3c0,6.6,2.9,10.5,8.8,10.5c5.7,0,9.2-4,9.2-10.6V14h10v43h-10v-6.9
			c-2,4.1-6.4,7.5-13.1,7.5c-9.6,0-14.9-6.5-14.9-16.5"/>
		<path fill="#261F03" d="M308.2,36v-0.7c0-12.2,8.5-22.3,20.7-22.3c13.6,0,20.4,10.8,20.4,23.1c0,0.9-0.2,1.8-0.2,2.8h-31.5
			c1.1,7,6,10.8,12.3,10.8c4.8,0,8.2-1.8,11.6-5.1l5.8,5.1c-4.1,4.9-9.5,8-17.3,8c-12.4,0-21.8-9-21.8-22.2 M339.6,32
			c-0.6-6-4.4-11.3-10.9-11.3c-6,0-10.2,5.3-11.1,11.3H339.6z"/>
		<path fill="#261F03" d="M357.2,14h10v6.6c3-4.1,6.9-7.5,13.6-7.5c9.6,0,15.4,6.5,15.4,16.5V57h-10V32.4c0-6.6-3.4-10.5-9.3-10.5
			c-5.7,0-9.7,4-9.7,10.6V57h-10V14z"/>
		<path fill="#261F03" d="M404.2,36v-0.6c0-12.2,9.4-22.4,22.5-22.4c13.1,0,22.5,10,22.5,22.2v0.2c0,12.2-9.4,22.3-22.6,22.3
			c-13.1,0-22.4-10-22.4-22.1 M439.2,36v-0.6c0-7.5-5.4-13.8-13.1-13.8c-7.9,0-12.9,6.2-12.9,13.6v0.2c0,7.5,5.4,13.8,13,13.8
			c7.9,0,13-6.2,13-13.6"/>
		<path fill="#261F03" d="M454.4,51.2l4.4-6.6c4.6,3.5,9.5,5.3,13.9,5.3c4.2,0,6.5-1.8,6.5-4.6V45c0-3.3-4.6-4.5-9.6-6
			c-6.3-1.8-13.4-4.4-13.4-12.6v-0.2c0-8.1,6.9-13.1,15.4-13.1c5.4,0,11.3,1.9,15.8,4.9l-3.9,7c-4.1-2.5-8.6-4.1-12.2-4.1
			c-3.8,0-6.1,1.8-6.1,4.3v0.2c0,3.1,4.6,4.4,9.7,6c6.2,1.9,13.3,4.8,13.3,12.5v0.2c0,9-6.9,13.5-15.8,13.5
			C466.4,57.6,459.7,55.4,454.4,51.2"/>
		<path fill="#261F03" d="M223.8,71h9.2l25,57h-10.5l-5.8-14h-26.8l-5.8,14h-10.2L223.8,71z M238.1,106l-9.8-22.7l-9.7,22.7H238.1z"
			/>
		<path fill="#261F03" d="M261.2,69h10v10h-10V69z M261.2,85h10v43h-10V85z"/>
		<path fill="#261F03" d="M282.2,85h10v9.9c3-6.4,8-10.8,15-10.5V95h-0.4c-8.6,0-14.6,5.4-14.6,16.8V128h-10V85z"/>
		<path fill="#261F03" d="M310.2,107v-0.3c0-12.2,8.8-22.3,21-22.3c13.6,0,20.6,10.6,20.6,22.9c0,0.9,0,1.7-0.1,2.7h-31.5
			c1.1,7,6,10.9,12.3,10.9c4.8,0,8.2-1.7,11.6-5.1l5.8,5.1c-4.1,4.9-9.8,8-17.6,8c-12.4,0-22.1-9-22.1-22.2 M342.1,104
			c-0.6-7-4.4-11.3-10.9-11.3c-6,0-10.2,4.3-11.1,11.3H342.1z"/>
		<path fill="#261F03" d="M356.6,122.5l4.4-6.6c4.6,3.5,9.4,5.3,13.8,5.3c4.2,0,6.4-1.8,6.4-4.6v-0.2c0-3.3-4.1-4.5-9.1-6
			c-6.3-1.8-12.9-4.4-12.9-12.6v-0.2c0-8.1,6.5-13.1,15-13.1c5.4,0,11.1,1.9,15.6,4.9l-4,7c-4.1-2.5-8.3-4.1-11.9-4.1
			c-3.8,0-5.8,1.8-5.8,4.3v0.2c0,3.1,4.1,4.4,9.2,6c6.2,1.9,12.8,4.8,12.8,12.5v0.2c0,9-6.7,13.5-15.7,13.5
			C368.5,128.9,362,126.7,356.6,122.5"/>
		<path fill="#261F03" d="M200.2,171v-0.3c0-16.1,11.9-29.3,29.1-29.3c10.5,0,16.7,3.6,22.1,8.8l-6.4,7.4c-4.5-4.2-9.5-7.1-16-7.1
			c-10.9,0-18.8,8.9-18.8,20v0.2c0,11.1,8,20.2,18.8,20.2c7,0,11.5-2.8,16.3-7.4l6.4,6.5c-5.9,6.2-12.3,10.1-22.9,10.1
			c-16.5,0-28.7-12.9-28.7-29.2"/>
		<path fill="#261F03" d="M261.2,140h10v10h-10V140z M261.2,156h10v43h-10V156z"/>
		<path fill="#261F03" d="M282.2,183v-27h9v24.5c0,6.6,3.4,10.5,9.3,10.5c5.7,0,9.7-4,9.7-10.6V156h10v43h-10v-6.6
			c-2,4.1-6.4,7.5-13.1,7.5c-9.6,0-14.9-6.5-14.9-16.5"/>
		<path fill="#261F03" d="M329.2,178v-0.5c0-14.2,9.4-22.2,19.6-22.2c7.1,0,11.4,3.6,14.4,7.5V140h10v59h-10v-7.1
			c-3,4.5-7.4,8-14.4,8c-10.1,0-19.6-8-19.6-22.2 M363.2,178v-0.5c0-8.3-5.5-13.7-12-13.7c-6.7,0-12,5.2-12,13.7v0.2
			c0,8.3,5.3,13.7,12,13.7c6.6,0,12-5.5,12-13.7"/>
		<path fill="#261F03" d="M410.2,199v-5.2c-3,3.5-7.3,6.2-13.8,6.2c-8.1,0-15.2-4.6-15.2-13.2v-0.2c0-9.5,7.3-14,17.3-14
			c5.2,0,7.7,0.7,11.7,1.8v-0.8c0-5.9-3.8-9.2-10.6-9.2c-4.8,0-8.4,1.1-12.3,2.7l-2.7-7.9c4.7-2.1,9.1-3.6,16.1-3.6
			c12.6,0,18.6,6.6,18.6,18.1V199H410.2z M410.2,181.1c-3-1-6.2-1.7-10-1.7c-6.2,0-10,2.5-10,6.6v0.2c0,4.1,3.8,6.3,8.5,6.3
			c6.5,0,11.5-3.6,11.5-9V181.1z"/>
		<path fill="#261F03" d="M427.2,178v-0.5c0-14.2,9.9-22.2,20.1-22.2c7.1,0,11.9,3.6,14.9,7.5V140h10v59h-10v-7.1
			c-3,4.5-7.9,8-14.9,8c-10.1,0-20.1-8-20.1-22.2 M462.2,178v-0.5c0-8.3-6-13.7-12.5-13.7c-6.7,0-12.5,5.2-12.5,13.7v0.2
			c0,8.3,5.8,13.7,12.5,13.7c6.6,0,12.5-5.5,12.5-13.7"/>
		<path fill="#261F03" d="M81,32.6c-0.5,0-0.9,0.4-0.9,0.9c0,0.5,0.4,0.9,0.9,0.9c0.5,0,0.9-0.4,0.9-0.9C82,33,81.6,32.6,81,32.6"/>
		<path fill="#261F03" d="M128.3,47.1l-0.2,0c-4.9-0.2-9.5-2-14-3.7c-1.8-0.7-3.7-1.4-5.6-2c-3.7-1.2-7-1.8-10.1-2
			c-0.8,0-1.6-0.1-2.3-0.1c-2.1,0-5,0.2-6.8,2c-0.5-2.3-1.1-4.9-2.1-7.3c-0.9-2.3-2.3-5.1-4.8-5.8c-0.4-0.1-0.8-0.2-1.2-0.2
			c-2.4,0-4.3,2.2-5.2,3.5l-0.4,0.6c-1.1,1.5-1.6,2.3-1.4,3c0.2,0.7,1.1,1.3,3.1,2.4c0.8,0.5,1,1.8,1.1,2.7l0,0.1
			c0.2,1.4,0.3,2.8,0.3,4.1c-2.8-2.9-7.2-4.1-11.1-4.8c-1-0.2-2.1-0.3-3.3-0.3c-4.5,0-8.9,1.7-11.8,2.9c-1.6,0.7-3.3,1.5-4.9,2.3
			c-3.1,1.5-6.3,2.8-9.6,3.8c-1,0.3-2.1,0.6-3.4,0.6h-0.1c0,0,0,0.2-0.1,0.2l-0.1,0.1c-0.5,0.1-1.4,0.4-1.5,1.2
			c-0.2,0.8-0.1,1.3,1,2.1c2.4,1.4,5.4,2,9,2c0.7,0,1.5,0,2.3-0.1c1.1-0.1,2.2-0.2,3.3-0.3c1.7-0.2,3.4-0.4,5-0.4
			c1.1,0,2.1,0.1,3,0.3c2.7,0.6,4.3,3.3,5.7,5.6c0.4,0.6,0.7,1.1,1,1.7l0,0c0.7,1,1.7,2.6,1.7,3.8c-0.1,1.2-1.7,2.2-2.9,2.9
			c-0.3,0.2-0.6,0.4-0.9,0.5c-0.4,0.3-0.8,0.5-1.3,0.9c-2.7,1.7-6.4,4.1-5.9,7.2c0.2,1.5,1.5,2.8,3.1,3c0.1,0,0.3,0,0.4,0
			c1.1,0,2.1-0.5,3.1-1c0.4-0.2,0.8-0.4,1.2-0.6c1.3-0.5,2.6-0.8,3.9-0.8c2.2,0,4.3,0.7,6.2,2.2c0.6,0.5,1.2,1.1,1.8,1.6
			c0.6,0.6,1.2,1.2,1.9,1.7c0.6,0.4,1.6,0.8,2.5,0.8c0.9,0,1.5-0.4,1.6-1.2c0.3-1.6,0.3-3.2,0.3-4.8c0-1.3,0-2.6,0.1-3.8
			c0.1-0.8,0.3-2.3,1.3-2.8c0.3-0.2,0.7-0.2,1.2-0.2c0.5,0,1,0.1,1.5,0.2c0.7,0.1,1.5,0.2,2.1,0.2c2.8-0.4,5.2-2.7,6.3-6.2
			c0.5-1.2,1.2-1.7,2.4-2c1.4-0.3,2.3-1.5,3.2-2.6c0.2-0.3,0.4-0.6,0.7-0.8c1.8-2.1,4-3.1,7-3.1c0.6,0,1.2,0,1.8,0.1
			c0.6,0.1,1.3,0.1,1.9,0.2c1.6,0.2,3.2,0.4,4.8,0.4c1.7,0,3.2-0.2,4.7-0.7c3.7-1.2,6.9-3.6,9.9-6l0.4-0.4c0.8-0.7,1-1.1,0.8-1.9
			C129.8,47.3,128.7,47.1,128.3,47.1 M64.7,58c-0.7-1.2-1.5-2.5-2.4-3.6c-2.2-2.6-5-3.8-9.3-3.8c-1.8,0-3.6,0.2-5.5,0.4
			c-1.8,0.2-3.7,0.4-5.4,0.4c-0.9,0-1.8-0.1-2.5-0.2c3.1-1,6-2.4,8.9-3.8c3.1-1.5,6.2-3,9.6-4c2-0.6,4.2-0.9,6.4-0.9
			c4,0,7.6,1,10.6,3c2.5,1.7,3.2,3.4,2.4,5.8c-0.9,2.6-2.4,5.1-4.6,7.6c-0.1,0.2-0.3,0.3-0.5,0.5c-0.9,1.1-2.5,3-3.8,3
			c-0.4,0-0.8-0.2-1.1-0.5C66.4,60.8,65.5,59.4,64.7,58 M89.7,61.7c-0.3,2.2-1.1,4-2.5,5.2c-1.2,1.1-2.5,1.3-4.1,1.3
			c-0.3,0-0.6,0-0.9,0c-0.3,0-0.6,0-0.9,0c-1.1,0-2.2,0.4-2.9,1.1c-2,2.1-2.2,6.6-2.2,9.6v1l0-0.2c-2.6-2.4-4.9-4.7-8.6-5.2
			c-0.6-0.1-1.1-0.1-1.7-0.1c-1.1,0-2.2,0.2-3.4,0.4c-1,0.3-1.9,0.7-2.8,1.1c-0.4,0.1-0.7,0.3-1.1,0.5c-0.4,0.2-1,0.4-1.4,0.4
			c-0.1,0-0.2,0-0.2-0.1c0,0,0-0.1,0-0.2c0.3-1.2,1.7-2.1,2.7-2.8l0.3-0.2c2.7-1.8,5.2-3.7,7.8-5.6c4.6-3.6,9.7-8,12.2-14.1
			c1.4-3.4,2-7.3,1.8-11.3l0-0.2c-0.1-1.6-0.2-3.3-0.9-4.9c-0.5-1.3-1.5-1.8-2.6-2.4c-0.2-0.1-0.4-0.2-0.6-0.3
			c0.5-0.9,1.8-3.3,3.4-3.3c0.6,0,1.2,0.4,1.7,1.1c1.8,2.5,2.7,5.5,3.4,8.2c0.1,0.5,0.3,1,0.4,1.5C88.1,47,90.5,55.6,89.7,61.7
			 M121.1,51.9c-2.5,1.4-4.7,2.1-6.8,2.1H114c-1.4,0-2.8-0.2-4.1-0.4c-1.2-0.2-2.4-0.3-3.6-0.3c-2.9-0.1-5.2,0.3-7,1.4
			c-1.3,0.8-2.2,1.8-3,2.9c-0.6,0.8-1.3,1.4-2,2.1C94,59.9,93.7,60,93.4,60h0c-0.3,0-0.4-0.1-0.3-0.6c0-0.1,0-0.2,0-0.3
			c-0.1-1.1-0.2-2.2-0.4-3.2l-0.1-0.6c-0.2-1.9-0.5-3.8-1-5.7c-0.1-0.3-0.2-0.7-0.3-1.2c-0.5-1.7-1.2-3.8,0.1-4.9
			c0.8-0.6,2.1-0.5,3.1-0.6c0,0,1,0.1,2.2,0.1H97c1.2,0,2.5-0.1,3.8,0c2.3,0.3,4.8,0.8,7.7,1.8c1.6,0.5,3.2,1.1,4.7,1.7
			c3.6,1.3,7.3,2.7,11.2,3.3C123.2,50.7,122.1,51.4,121.1,51.9"/>
		<path fill="#261F03" d="M161,80.5c-1.1-6.8-2.8-13.5-5-20c-2.2-6.2-5-12.3-8.3-18c-2.6-4.4-5.5-8.7-8.7-12.6
			c-4.2-5.1-8.9-9.7-14.1-13.7c-5.1-3.9-10.6-7.2-16.5-9.7c-5.9-2.5-12-4.2-18.3-5.1c-6.4-0.8-13-0.8-19.4,0.2
			c-6.3,1-12.4,2.9-18.2,5.5c-5.8,2.7-11.3,6.1-16.3,10.1c-5.1,4.1-9.7,8.8-13.7,14c-4,5-7.4,10.5-10.4,16.2c-3,6-5.5,12.2-7.4,18.6
			c-2,6.7-3.3,13.6-4.1,20.5c-0.8,7.2-0.9,14.5-0.3,21.7c0.5,7,1.7,14,3.5,20.8c1.7,6.5,4,12.9,6.9,19c2.8,5.8,6.1,11.4,9.9,16.7
			c4.3,5.8,15.2,16.4,15.3,16.4C48.7,191.6,64.4,198,81.2,198h0c6.4,0,12.8-1.1,19-2.9c6.1-1.8,12-4.5,17.4-7.8
			c5.5-3.4,10.6-7.5,15.2-12c4.6-4.6,8.7-9.7,12.2-15.1c3.6-5.5,6.6-11.3,9.1-17.4c2.6-6.3,4.5-12.9,5.9-19.5
			c1.5-7,2.2-14.1,2.4-21.2C162.6,94.9,162.1,87.6,161,80.5 M17.2,128h-2.1l1.9-7.3c0.2-0.5,0.3-0.4,0.3-0.2
			C17.3,123.1,17.2,125,17.2,128 M18.2,108.4l-4.2-2.1c-0.2-0.1-0.2-0.3,0-0.3H23c0.3,0,0.3,0.2,0,0.3l-4,2
			C18.8,108.4,18.4,108.5,18.2,108.4 M13,104l4.7-3.3c0,1.1,0,2.3-0.1,3.3H13z M14.2,93h8.3c0.2,0,0.2,0.2,0,0.3L19,95.1
			c-0.2,0.1-0.6,0.1-0.8,0.1l-3.7-1.8c-0.2-0.1-0.2-0.3,0-0.3 M13.5,92l4.3-2.8c0,0.9,0,1.8-0.1,2.8H13.5z M19.3,89.2l4.2,2.8h-4.2
			C19.4,91,19.3,90.1,19.3,89.2 M19.5,100.7l4.7,3.3h-4.6C19.6,103,19.5,101.8,19.5,100.7 M20,128c0-3-0.1-5-0.1-7.5
			c0-0.2,0.2-0.2,0.3,0.3L22,128H20z M81.2,190.6c-12.4,0-24.1-3.7-34.4-10.4c8,0,15.9,1,23.8,2.2c7.9,1.2,15.8,2.5,23.8,3.3
			c3.1,0.3,6.1,0.6,9.2,0.7C96.6,189.1,89,190.6,81.2,190.6 M117.5,178.9c-7.8,0.8-15.8,0.5-23.6-0.4c-7.8-0.8-15.6-2.2-23.4-3.3
			c-8-1.2-16.1-2.2-24.2-2.1c-2.8,0-5.5,0.2-8.2,0.4c-2.6-2.3-5-4.8-7.4-7.4c8.1-1.2,16.4-1.2,24.6-0.6c8.2,0.6,16.4,1.8,24.6,3
			c4.1,0.6,8.2,1.2,12.3,1.8c2,0.3,10.2,0.9,12.2,0.9c8.2,0,16.4-0.6,24.5-1.9C125.3,172.8,121.6,176.1,117.5,178.9 M136.2,160.5
			c-7.9,1.9-15.9,2.9-24,3.3c-4,0.2-8.1,0.3-12.1,0.1c-4.1-0.2-8.1-0.9-12.2-1.4c-8.1-1.2-16.3-2.5-24.4-3.4
			c-8.1-0.9-16.3-1.4-24.5-1c-4.4,0.2-8.9,0.7-13.3,1.6c-1.5-2.1-2.9-4.3-4.3-6.5c7.2-1.5,14.5-2.5,21.9-2.7
			c7.5-0.3,14.9,0.2,22.3,1.2c7.2,0.9,14.2,2.1,21.4,3c6.5,0.9,13.1,1.3,19.7,1.3h0.1c6.8,0,13.7-0.4,20.5-1.5
			c4.9-0.8,9.8-1.7,14.7-3C140.2,154.6,138.3,157.7,136.2,160.5 M27.1,135.4c-3.4-2.3-3.9-6-3.7-6.7l10.6-25c0.2-0.4,0.3-0.3,0.3,0
			L27.1,135.4z M34.2,111.8c-0.2,11.2-0.3,21.6-0.4,26.6c-1.9-0.6-3.8-1.2-5.5-2.3l5.6-24.7C34.1,111.1,34.1,111.4,34.2,111.8
			 M31.2,90h8.1c0.2,0,0.2,0.1,0,0.1l-3.6,1.7c-0.2,0.1-0.5,0.1-0.7,0l-3.7-1.7c-0.2-0.1-0.2-0.1,0-0.1 M30.4,88l4.2-2.8
			c0,0.9,0,1.8,0,2.8H30.4z M36.2,85.3l4.2,2.7h-4.1C36.3,87,36.2,86.2,36.2,85.3 M44.7,122.2c-0.1,5.4-0.3,10.7-0.4,14.8
			c0,0-0.1,0.1-0.1,0.1l-3.5-15.4l1.9-4.5L44.7,122.2z M43.3,115.5l1.4-3.3c0.1-0.2,0.2-0.2,0.3,0c-0.1,2.2-0.1,4.5-0.2,6.8
			L43.3,115.5z M39.8,123.8l3.4,14c-1.2,0.5-2.7,0.8-4,1c-0.5,0.1-0.9,0.1-1.4,0.1c-0.3,0-0.6,0.1-0.8,0c0-1.9-0.1-4.7-0.1-8.2
			L39.8,123.8z M36.8,127.4c-0.1-4.6-0.1-10.1-0.2-15.7c0-0.5,0.1-0.8,0.4-0.1l2.3,10L36.8,127.4z M40.2,119.5l-3.6-15.7
			c0-0.3,0-0.5,0.3,0l5.1,11.8L40.2,119.5z M47.2,124.4v-2.3c0-4.1-0.3-6-0.4-9.8c0-0.3,0.1-0.5,0.3-0.1l6.3,15.8
			c-1,2.1-1.2,2.8-2.8,4.5L47.2,124.4z M49.6,133.4c-0.6,0.7-1.5,1.4-2.2,2c-0.1-2.1-0.2-4.9-0.2-7.5L49.6,133.4z M56,127.2
			l7.2-15.6C63.1,116,63,123,62.9,127h-2.9C58.8,127,57.1,127.3,56,127.2 M108.2,108h10c0.3,0,0.3-0.2,0.1-0.1c0,0-4.8,2.2-4.8,2.2
			c-0.3,0.1-0.7,0.1-1,0l-4.9-2c-0.3-0.1-0.3,0,0.1,0 M106.6,105l5.5-3.9c0,1.2-0.1,3.9-0.1,3.9H106.6z M108.5,90c0,0,0.1,0,0.2,0
			h8.7c0.1,0,0.1,0,0.2,0h0l0,0c0.1,0,0,0.1-0.1,0.2l-3.9,1.8c-0.2,0.1-0.6,0.1-0.8,0l-4.1-1.9C108.5,90.1,108.5,90.1,108.5,90
			 M107.6,88l4.7-3.3c0,1.1,0,2.3,0,3.3H107.6z M113.9,84.7l4.7,3.3H114C113.9,87,113.9,85.8,113.9,84.7 M114.1,101.1l5.4,3.9h-5.4
			C114.2,104,114.1,102.4,114.1,101.1 M130.2,97h8.6c0.2,0,0.3,0.3,0,0.4l-4,2c-0.2,0.1-0.6,0.1-0.8,0l-4.2-2.1
			c-0.2-0.1-0.2-0.3,0-0.3 M128.8,96l4.7-3.3c0,1.1,0,1.3,0,3.3H128.8z M135.3,92.7l4.7,3.3h-4.7C135.4,94,135.4,93.8,135.3,92.7
			 M133.3,111.4c-0.2,10.8-0.3,22.4-0.4,30.6c-2.6,0.9-4.9,1.1-6.9,0.9l4.4-19.8l2.6-11.7C133.1,111.2,133.2,111,133.3,111.4
			 M132.7,106.8l-7.8,34.4l-3.4-9.2l0-0.1l10.6-25.4C132.5,105.9,132.8,105.6,132.7,106.8 M124.1,142.7c-2.4-0.5-4.4-1.7-5.8-3
			l2.5-6L124.1,142.7z M117.3,138.7c-1.5-1.6-2.4-3.2-2.7-3.8c-0.1-5.2-0.2-13-0.3-21.3l5.9,18.2L117.3,138.7z M104.5,135H91.7
			l19-21.5L104.5,135z M111.8,114.1c-0.1,4.8-0.2,19.9-0.2,20.9h-5.7L111.8,114.1z M135.6,111.4c0-0.3,0.2-0.2,0.3,0.1l5.3,23.1
			c-1.2,2.7-3.5,4.7-5.2,5.9C135.9,136.2,135.6,111.5,135.6,111.4 M142.6,134l-6.5-27.2c-0.2-1.7,0.2-1.2,0.6-0.6l11.9,27.7H142.6z
			 M153.2,121.1c-0.9,4.4-2,8.7-3.4,12.9L135.5,100l6.3-2.8c0.7-0.3,0.7-1.2,0-1.6c0,0-6.2-4.4-6.5-4.6l-0.1-10.4
			c0.8-0.1,1.5-0.4,2.2-0.6c0.8-0.1,1.6,0,2.4,0.2c0.8,0.1,1.5,0.2,2.2,0c0.7-0.2,1.3-0.6,1.9-1c-1.6,0-2.9-1.1-4.4-1.7
			c-0.7-0.3-1.5-0.5-2.3-0.6c-0.8-0.1-1.7-0.1-2.5,0.1c-0.1-0.6-0.2-0.9-0.3-1.9h-0.3c-0.5,3-0.5,6-0.5,8.8c0,2,0,4.1-0.1,6.1
			c0,0.4,0,0.7,0,1.1l-6.4,4.6c-0.6,0.3-0.9,1.3,0.1,1.6v0l6,2.8L120.9,130l-6.4-19.2l7-3.3c0.7-0.4,0.7-1.5,0-1.8
			c0,0-6.6-4.6-7.5-5.3c0-2.4-0.2-5.1-0.2-7.4l6.3-3v0c1-0.3,0.8-1.2,0.1-1.6c0,0-5.7-4.1-6.5-4.7c-0.1-4.7-0.1-9.4-0.1-14.2
			c0.4,0,0.7-0.1,1.1-0.2c0.4-0.1,0.8-0.2,1.2-0.3c0.8-0.2,1.6,0,2.4,0.1c0.8,0.1,1.6,0.2,2.3,0c0.7-0.2,1.3-0.6,1.9-1
			c-1.6,0-3-1.1-4.4-1.7c-0.7-0.3-1.5-0.5-2.3-0.6c-0.8-0.1-1.7-0.1-2.4,0.2c-0.1-0.6-0.2-0.9-0.3-1.9h0v-0.1
			c-1,2.6-0.6,5.2-0.7,7.9c0,2.4-0.1,4.8-0.1,7.2c0,1.6-0.1,3.1-0.1,4.7l-6.6,4.7c-0.7,0.3-0.7,1.3,0,1.6l6.4,3.1h0
			c0,2-0.1,4.9-0.1,7.3l-7.5,5.2c-0.8,0.4-0.8,1.5,0,1.8l6.9,3.3L90,134.6c-0.4,0-3.1,0-3.5,0.5c-0.6,0.5-0.6,1.1-0.3,1.7
			c0.3,0.8,1,1.3,1.7,1.7c0.4,0.2,0.8,0.4,1.2,0.6c0,0,0.1,0.1,0.1,0.1c0,0,1.9,6.4,10.2,9.4c0,0,0.2,0.1,0.2,0.2c0,0,0,0.1-0.1,0.1
			c-0.1,0-0.1,0-0.2,0.1c-7.9-0.5-15.7-1.8-23.5-3c-3-0.5-6-0.9-9-1.3c-2-0.3-4.1-0.5-6.1-0.9c-0.2-0.1-0.4-0.1-0.4-0.2v0
			c0,0,0,0,0,0v-0.1c0,0,0.1,0,0.1,0c0-0.1,0.1-0.1,0.1-0.2c0,0,0.1,0,0.1,0c11-3.3,13.3-11.3,13.3-11.3c0.2-0.1,0.3-0.2,0.4-0.2
			c0.3-0.1,0.6-0.3,0.9-0.4c0.7-0.4,1.4-1,1.7-1.7c0.2-0.6,0.2-1.3-0.3-1.7c-0.4-0.5-3.5-0.7-3.5-0.7l0-0.2h-0.5c0-1-0.1-6-0.2-8.8
			c0.3,0.1,0.7,0.1,1,0c0.4-0.1,0.8-0.2,1.2-0.3c0.8-0.2,1.7-0.1,2.5,0c0.8,0.2,1.6,0.3,2.5,0.1c0.7-0.2,1.4-0.6,1.9-1
			c-1.7-0.1-3-1.1-4.5-1.8c-0.8-0.3-1.6-0.5-2.4-0.6c-0.8-0.1-1.8-0.2-2.5,0.2c-0.1-0.7-0.1-0.8-0.2-1.8h-0.3
			c-0.4,3-0.4,11-0.5,14.3l-5.5,0c-0.2-6-0.4-14-0.6-19.2l4.8-10.3c0.6,0.3,1.4,0.3,2.1,0.6c0.8,0.2,1.4,0.7,2,1.2
			c0.6,0.5,1.2,1,1.9,1.2c0.8,0.2,1.6,0.2,2.4,0.1c-1.4-0.8-2-2.3-2.9-3.6c-0.5-0.7-1-1.2-1.7-1.7c-0.7-0.5-1.4-1-2.2-1.2
			c0.2-0.6,0.4-1.3,0.5-1.7c0-0.1,0-0.2-0.1-0.3c0,0-0.1,0-0.1,0c-0.2,0-0.3,0.2-0.4,0.3c-0.4,0.5-1,1.5-1.1,1.7l-5.1,11
			c-0.1-1.7-0.1-3.4-0.1-5.2c0-2.2-0.1-4.5-0.5-6.5H64c-0.4,3-0.5,5.2-0.5,7.9c0,2.4-0.1,4.7-0.2,7.1l-8.8,18.2l-7.9-19.3
			c0-2.4-0.1-4.6-0.1-7c0-2.7,0-5.9-0.5-7.9h-0.3c-0.5,2-0.5,5.1-0.5,7.8c0,2.4-0.1,4.8-0.2,7.2l-2.5,5.9l-6.2-14.4
			c0-2.4-0.1-4.8-0.1-7l5.6-2.7c0.6-0.3,0.6-1.1,0-1.4c0,0-4.7-3.4-5.7-4.1c-0.1-4.9-0.1-9.9-0.2-14.8c0.4,0,0.7-0.1,1.1-0.2
			c0.4-0.1,0.8-0.2,1.2-0.3c0.8-0.2,1.6,0,2.4,0.1c0.8,0.1,1.6,0.2,2.3,0c0.7-0.2,1.3-0.6,1.9-1c-1.6,0-2.9-1-4.3-1.7
			c-0.7-0.3-1.5-0.6-2.3-0.6c-0.8-0.1-1.7-0.1-2.5,0.2c-0.1-0.7-0.1-1.9-0.3-1.9h-0.3c-0.5,3-0.5,6.3-0.5,9.4c0,3.1-0.1,6.1-0.1,9.2
			c0,0.6,0,1.1,0,1.7l-5.7,4.1c-0.6,0.3-0.6,1.1,0,1.4l5.6,2.6c0,2.5-0.1,6.7-0.1,7l-11.4,26.7l-1.7-6.2h1.9l0,0h0.3
			c0.3,0,0.7-0.1,1-0.2c0.2-0.1,0.7-0.2,0.7-0.5c0-0.3-0.5-0.2-0.6-0.3c-0.3-0.1-0.7,0-1,0h-2.6l-1.1-4.4c0-1.7-0.1-3.6-0.1-5.3
			l6.3-3c0.6-0.3,0.6-1.3,0-1.6c0,0-6-4.3-6.5-4.6c0-1.3,0-3-0.1-4.1l5.7-2.7c0.6-0.3,0.6-1.1,0-1.4c0,0-5-3.6-5.8-4.2
			c0-4.1-0.1-6.9-0.1-7.2c0.7,0.1,1.4-0.3,2-0.5c0.7-0.1,1.4-0.1,2.1,0.1c0.7,0.1,1.4,0.2,2.1,0.1c0.7-0.2,1.2-0.5,1.8-1
			c-1.4,0-2.6-0.9-3.9-1.5c-0.6-0.3-1.4-0.5-2.1-0.5c-0.7-0.1-1.5,0.1-2.2,0.4c-0.1-0.6-0.2-1.5-0.3-1.5h-0.3
			c-0.4,2-0.5,4.3-0.5,6.6c0,2,0,3.2-0.1,5.2L12,91.8c-0.6,0.3-0.6,1.1,0,1.4l5.7,2.7c0,1.2,0,2.9-0.1,4.1l-6.4,4.6
			c-0.6,0.3-0.6,1.3,0,1.6l6.2,3c0,1.7-0.1,3.7-0.1,5.4l-1.1,4.5h-2.6c-0.3,0-0.7-0.1-1,0c-0.2,0.1-0.7,0.1-0.7,0.5
			c0,0.3,0.4,0.3,0.7,0.4c0.3,0.1,0.7,0.1,1,0.1h0.7c0,0,0,0,0,0h1.5l-2,8h-3.1c-1.9-8-3.1-14.8-3.5-22.2c-0.4-7.4-0.1-15,0.9-22.3
			c1-6.8,2.6-13.6,4.9-20.2c2.2-6.2,4.9-12.2,8.3-17.9c1.8-3,3.7-5.9,5.8-8.6c8.5,2.9,19.6,0.2,19.6,0.2c9.9-1.8,16.1-1.5,19.8-1
			l1.9,0.3c0.2-1.2,0.4-2.1,0.7-3.3C58.7,29.9,47,31.5,47,31.5c-7.1,0.6-11.4-0.8-13.7-2c0,0,4.5-4.8,8.1-7.4
			c3.2,2.3,7.3,3.5,11.1,4.1c2.5,0.5,5,0.6,7.5,1.2c2.5,0.6,5,1.3,7.5,2.2c0.9,0.3,2,0.9,2.5,1.1c0.5-1,1.1-1.9,1.8-2.9l-1.6-1
			C67,24.9,64,24,60.6,23c-2.3-0.7-4.4-1.5-6.6-2.6c-2.9-1.5-4.7-3.4-4.8-3.6c0,0,4.9-3,9.6-4.8c2.1,3.1,6.2,4.8,8.9,7.1
			c3.9,3.3,5.9,6.4,6.1,6.7c0.9-0.7,1.8-1.2,2.9-1.6c-1.5-3.4-3.7-7.3-6.4-9.7c-1.2-1.1-3-3-3.5-5c0,0,6.2-1.6,11-1.6l1.8,15.7
			c0.7-0.1,1.7-0.1,1.7-0.1s0.6,0,1.7,0.1l1.8-15.7c0,0,4.2,0.2,7.7,0.9c1.9,0.4,3.3,0.7,3.3,0.7c-0.6,1.9-2.3,3.9-3.5,5
			c-2.7,2.5-4.8,6.3-6.3,9.8c0.9,0.4,1.9,0.8,2.9,1.6c1.8-2.7,4-5,6.1-6.7c2.7-2.3,6.7-4.1,8.8-7.1c0.5,0.2,3,1.1,6.8,3.1l2.9,1.6
			c-0.1,0.1-3.3,2.7-4.9,3.6c-2.1,1.2-4.3,1.9-6.6,2.6c-3.4,1-6.4,2-9.7,3.8l-1.6,1c0.6,0.8,1.3,1.8,1.8,2.9
			c0.6-0.3,1.7-0.8,2.5-1.1c2.5-0.9,5-1.6,7.5-2.2c2.5-0.6,5-0.8,7.5-1.2c3.8-0.7,7.8-1.9,11-4.1c4,3.1,8.1,7.4,8.1,7.4
			c-2.3,1.2-6.6,2.7-13.6,2c0,0-11.7-1.6-22.1,1.7c0.3,1,0.4,1.7,0.7,3.2l2.1-0.3c3.7-0.5,9.7-0.7,19.7,1c0,0,11,2.6,19.6-0.2
			c0.8,1.1,1.7,2.2,2.5,3.4c3.7,5.3,6.7,11,9.3,17c2.6,6.3,4.6,12.8,6,19.4c1.4,7,2.2,14.2,2.3,21.3
			C155.4,105.7,154.7,113.4,153.2,121.1"/>
	</g>
</g>
</svg>
