<?xml version="1.0" encoding="utf-8"?>
<!-- Generator: Adobe Illustrator 17.0.0, SVG Export Plug-In . SVG Version: 6.00 Build 0)  -->
<!DOCTYPE svg PUBLIC "-//W3C//DTD SVG 1.1//EN" "http://www.w3.org/Graphics/SVG/1.1/DTD/svg11.dtd">
<svg version="1.1" id="Layer_1" xmlns="http://www.w3.org/2000/svg" xmlns:xlink="http://www.w3.org/1999/xlink" x="0px" y="0px"
	 width="100px" height="110px" viewBox="0 0 100 110" enable-background="new 0 0 100 110" xml:space="preserve">
<g>
	
		<image overflow="visible" opacity="0.4" width="139" height="139" xlink:href="ED4232BD4AA214C8.png"  transform="matrix(1 0 0 1 -20 -9.7143)">
	</image>
	<g>
		<g>
			<g>
				<path fill="#FFFFFF" d="M50,53c-5.5,0-10-4.5-10-10s4.5-10,10-10s10,4.5,10,10S55.5,53,50,53"/>
			</g>
			<g>
				<g>
					<path fill="#E69433" d="M50,53c-5.5,0-10-4.5-10-10s4.5-10,10-10s10,4.5,10,10S55.5,53,50,53 M50,15c-15.5,0-28,12.5-28,28
						c0,21,28,52,28,52s28-31,28-52C78,27.5,65.5,15,50,15z"/>
				</g>
				<g>
					<path fill="none" stroke="#FFFFFF" stroke-width="2" stroke-miterlimit="10" d="M50,53c-5.5,0-10-4.5-10-10s4.5-10,10-10
						s10,4.5,10,10S55.5,53,50,53 M50,15c-15.5,0-28,12.5-28,28c0,21,28,52,28,52s28-31,28-52C78,27.5,65.5,15,50,15z"/>
				</g>
			</g>
		</g>
	</g>
</g>
</svg>
