<?xml version="1.0" encoding="utf-8"?>
<!-- Generator: Adobe Illustrator 17.0.0, SVG Export Plug-In . SVG Version: 6.00 Build 0)  -->
<!DOCTYPE svg PUBLIC "-//W3C//DTD SVG 1.1//EN" "http://www.w3.org/Graphics/SVG/1.1/DTD/svg11.dtd">
<svg version="1.1" id="Layer_1" xmlns="http://www.w3.org/2000/svg" xmlns:xlink="http://www.w3.org/1999/xlink" x="0px" y="0px"
	 width="330px" height="330px" viewBox="0 0 330 330" enable-background="new 0 0 330 330" xml:space="preserve">
<g>
	
		<image overflow="visible" opacity="0.3" width="1521" height="1549" xlink:href="33F145C541501F6E.png"  transform="matrix(0.24 0 0 0.24 -2.6464 -42.6693)">
	</image>
	<g>
		<g>
			<g>
				<defs>
					<path id="SVGID_1_" d="M30.9,209.9c0.3,0.8,0.5,1.6,0.8,2.4c15.1,42.2,48.3,72.7,87.6,86.1c25.2,8.4,52.9,9.9,80.1,3.1
						c4.3-1.1,8.6-2.4,12.9-4c73.4-26.3,111.5-107.2,85.2-180.6c-0.3-0.8-0.6-1.6-0.9-2.4L30.9,209.9z"/>
				</defs>
				<clipPath id="SVGID_2_">
					<use xlink:href="#SVGID_1_"  overflow="visible"/>
				</clipPath>
				<g clip-path="url(#SVGID_2_)">
					<g>
						<defs>
							<rect id="SVGID_3_" x="31" y="114.8" width="293" height="193"/>
						</defs>
						<clipPath id="SVGID_4_">
							<use xlink:href="#SVGID_3_"  overflow="visible"/>
						</clipPath>
					</g>
				</g>
			</g>
			<g>
				<defs>
					<path id="SVGID_5_" d="M164.7,22.8c-15.8,0-31.9,2.9-47.7,8.6C43.6,57.8,5.4,138.7,31.8,212.1
						c26.3,73.4,107.2,111.6,180.6,85.3C285.8,271,323.9,190,297.6,116.6C276.9,58.9,222.6,22.8,164.7,22.8h0.3"/>
				</defs>
				<clipPath id="SVGID_6_">
					<use xlink:href="#SVGID_5_"  overflow="visible"/>
				</clipPath>
			</g>
			<g>
				<defs>
					<path id="SVGID_7_" d="M53.5,235.3l120-50L121.3,50.2C-24.1,144.2,53.5,235.3,53.5,235.3"/>
				</defs>
				<clipPath id="SVGID_8_">
					<use xlink:href="#SVGID_7_"  overflow="visible"/>
				</clipPath>
			</g>
			<g>
				<defs>
					<path id="SVGID_9_" d="M152.6,160.6l102.3,55.7c40.5-53.9,9.4-112.8,9.4-112.8L152.6,160.6z"/>
				</defs>
				<clipPath id="SVGID_10_">
					<use xlink:href="#SVGID_9_"  overflow="visible"/>
				</clipPath>
			</g>
			<g>
				<defs>
					<path id="SVGID_11_" d="M157.1,28.8l12.8,134.3L268,84.7c0,0,14.8,3.5-18.6-28.4c-26.1-24.9-67.6-27.7-84.6-27.7
						C160,28.6,157.1,28.8,157.1,28.8"/>
				</defs>
				<clipPath id="SVGID_12_">
					<use xlink:href="#SVGID_11_"  overflow="visible"/>
				</clipPath>
			</g>
		</g>
		<g>
			<g>
				<path fill="#FFFFFF" d="M42.5,267.9C-14.3,200.3-5.6,99.3,62.1,42.5c67.7-56.8,168.6-48.1,225.4,19.6
					c56.8,67.7,48.1,168.6-19.6,225.4C200.3,344.3,99.3,335.6,42.5,267.9"/>
			</g>
			<g>
				<defs>
					<path id="SVGID_13_" d="M30.9,209.9c0.3,0.8,0.5,1.6,0.8,2.4c15.1,42.2,48.3,72.7,87.6,86.1c25.2,8.4,52.9,9.9,80.1,3.1
						c4.3-1.1,8.6-2.4,12.9-4c73.4-26.3,111.5-107.2,85.2-180.6c-0.3-0.8-0.6-1.6-0.9-2.4L30.9,209.9z"/>
				</defs>
				<clipPath id="SVGID_14_">
					<use xlink:href="#SVGID_13_"  overflow="visible"/>
				</clipPath>
				<g clip-path="url(#SVGID_14_)">
					<g>
						<defs>
							<rect id="SVGID_15_" x="31" y="114.8" width="293" height="193"/>
						</defs>
						<clipPath id="SVGID_16_">
							<use xlink:href="#SVGID_15_"  overflow="visible"/>
						</clipPath>
						<rect x="31" y="114.8" clip-path="url(#SVGID_16_)" fill="#589381" width="6" height="193"/>
						<rect x="37" y="114.8" clip-path="url(#SVGID_16_)" fill="#589382" width="7" height="193"/>
						<rect x="44" y="114.8" clip-path="url(#SVGID_16_)" fill="#589383" width="7" height="193"/>
						<rect x="51" y="114.8" clip-path="url(#SVGID_16_)" fill="#589384" width="8" height="193"/>
						<rect x="59" y="114.8" clip-path="url(#SVGID_16_)" fill="#599385" width="7" height="193"/>
						<rect x="66" y="114.8" clip-path="url(#SVGID_16_)" fill="#599386" width="7" height="193"/>
						<rect x="73" y="114.8" clip-path="url(#SVGID_16_)" fill="#599387" width="8" height="193"/>
						<rect x="81" y="114.8" clip-path="url(#SVGID_16_)" fill="#599388" width="7" height="193"/>
						<rect x="88" y="114.8" clip-path="url(#SVGID_16_)" fill="#599389" width="7" height="193"/>
						<rect x="95" y="114.8" clip-path="url(#SVGID_16_)" fill="#59938A" width="8" height="193"/>
						<rect x="103" y="114.8" clip-path="url(#SVGID_16_)" fill="#58948A" width="7" height="193"/>
						<rect x="110" y="114.8" clip-path="url(#SVGID_16_)" fill="#58938B" width="7" height="193"/>
						<rect x="117" y="114.8" clip-path="url(#SVGID_16_)" fill="#59948C" width="8" height="193"/>
						<rect x="125" y="114.8" clip-path="url(#SVGID_16_)" fill="#59938D" width="7" height="193"/>
						<rect x="132" y="114.8" clip-path="url(#SVGID_16_)" fill="#59938E" width="7" height="193"/>
						<rect x="139" y="114.8" clip-path="url(#SVGID_16_)" fill="#5A948F" width="8" height="193"/>
						<rect x="147" y="114.8" clip-path="url(#SVGID_16_)" fill="#5A9390" width="7" height="193"/>
						<rect x="154" y="114.8" clip-path="url(#SVGID_16_)" fill="#5A9390" width="7" height="193"/>
						<rect x="161" y="114.8" clip-path="url(#SVGID_16_)" fill="#5A9391" width="8" height="193"/>
						<rect x="169" y="114.8" clip-path="url(#SVGID_16_)" fill="#5A9394" width="7" height="193"/>
						<rect x="176" y="114.8" clip-path="url(#SVGID_16_)" fill="#5A9395" width="7" height="193"/>
						<rect x="183" y="114.8" clip-path="url(#SVGID_16_)" fill="#5A9396" width="8" height="193"/>
						<rect x="191" y="114.8" clip-path="url(#SVGID_16_)" fill="#5A9397" width="7" height="193"/>
						<rect x="198" y="114.8" clip-path="url(#SVGID_16_)" fill="#5A9398" width="7" height="193"/>
						<rect x="205" y="114.8" clip-path="url(#SVGID_16_)" fill="#5A9398" width="8" height="193"/>
						<rect x="213" y="114.8" clip-path="url(#SVGID_16_)" fill="#5A9399" width="7" height="193"/>
						<rect x="220" y="114.8" clip-path="url(#SVGID_16_)" fill="#5B939A" width="7" height="193"/>
						<rect x="227" y="114.8" clip-path="url(#SVGID_16_)" fill="#5B939C" width="8" height="193"/>
						<rect x="235" y="114.8" clip-path="url(#SVGID_16_)" fill="#5B949C" width="7" height="193"/>
						<rect x="242" y="114.8" clip-path="url(#SVGID_16_)" fill="#5B949D" width="7" height="193"/>
						<rect x="249" y="114.8" clip-path="url(#SVGID_16_)" fill="#5B949E" width="8" height="193"/>
						<rect x="257" y="114.8" clip-path="url(#SVGID_16_)" fill="#5B949F" width="7" height="193"/>
						<rect x="264" y="114.8" clip-path="url(#SVGID_16_)" fill="#5B949F" width="7" height="193"/>
						<rect x="271" y="114.8" clip-path="url(#SVGID_16_)" fill="#5B94A0" width="8" height="193"/>
						<rect x="279" y="114.8" clip-path="url(#SVGID_16_)" fill="#5C94A1" width="7" height="193"/>
						<rect x="286" y="114.8" clip-path="url(#SVGID_16_)" fill="#5C94A2" width="7" height="193"/>
						<rect x="293" y="114.8" clip-path="url(#SVGID_16_)" fill="#5C93A3" width="8" height="193"/>
						<rect x="301" y="114.8" clip-path="url(#SVGID_16_)" fill="#5C93A3" width="7" height="193"/>
						<rect x="308" y="114.8" clip-path="url(#SVGID_16_)" fill="#5C93A3" width="16" height="193"/>
					</g>
				</g>
			</g>
			<g>
				<defs>
					<path id="SVGID_17_" d="M164.7,22.8c-15.8,0-31.9,2.9-47.7,8.6C43.6,57.8,5.4,138.7,31.8,212.1
						c26.3,73.4,107.2,111.6,180.6,85.3C285.8,271,323.9,190,297.6,116.6C276.9,58.9,222.6,22.8,164.7,22.8h0.3"/>
				</defs>
				<clipPath id="SVGID_18_">
					<use xlink:href="#SVGID_17_"  overflow="visible"/>
				</clipPath>
				<g clip-path="url(#SVGID_18_)">
					<path fill="#7BB4BD" d="M29.6,211.6c-26.5-73.8,12-157.1,86.7-183.9C191,0.9,273.7,40.7,300.2,114.5L29.6,211.6z"/>
				</g>
				<g clip-path="url(#SVGID_18_)">
					<path fill="#83B8AF" d="M29.1,210.6c-26.5-73.8,12-157.1,86.8-183.9c74.7-26.8,157.4,12.9,183.9,86.7L29.1,210.6z"/>
				</g>
				<g clip-path="url(#SVGID_18_)">
					<polygon fill="#5C93A3" points="275.8,-40.7 359.2,177.5 194.3,240.6 110.8,22.4 					"/>
				</g>
				<g clip-path="url(#SVGID_18_)">
					<polygon fill="#82B6A1" points="26.2,210.9 163.9,162 138,93.6 0.4,142.5 					"/>
				</g>
			</g>
			<g>
				<path fill="#FFFFFF" d="M235.7,138.5C219.9,98.2,174.4,78.3,134.1,94c-40.3,15.8-60.3,61.3-44.5,101.6
					c15.8,40.3,61.3,60.3,101.6,44.5C231.5,224.4,251.4,178.9,235.7,138.5"/>
			</g>
			<g>
				<defs>
					<path id="SVGID_19_" d="M53.5,235.3l120-50L121.3,50.2C-24.1,144.2,53.5,235.3,53.5,235.3"/>
				</defs>
				<clipPath id="SVGID_20_">
					<use xlink:href="#SVGID_19_"  overflow="visible"/>
				</clipPath>
				<g clip-path="url(#SVGID_20_)">
					<path fill="#E1C339" d="M66.8,197C48,145.1,74.9,86.4,127.5,67.3C180,48.3,238.3,76.1,257.1,128L66.8,197z"/>
				</g>
			</g>
			<g>
				<defs>
					<path id="SVGID_21_" d="M152.6,160.6l102.3,55.7c40.5-53.9,9.4-112.8,9.4-112.8L152.6,160.6z"/>
				</defs>
				<clipPath id="SVGID_22_">
					<use xlink:href="#SVGID_21_"  overflow="visible"/>
				</clipPath>
				<g clip-path="url(#SVGID_22_)">
					<path fill="#69ADC2" d="M253.2,128.5c19.4,49.6-5.2,106.9-55.5,126.6c-50.3,19.6-107.2-5.8-126.6-55.5L253.2,128.5z"/>
				</g>
			</g>
			<g>
				<path fill="#E0C06C" d="M243.9,137.3c-17.1-43.9-66.6-65.6-110.5-48.4C89.5,106,67.8,155.5,84.9,199.4
					c17.1,43.9,66.6,65.6,110.5,48.4C239.3,230.7,261,181.2,243.9,137.3"/>
			</g>
			<g>
				<path fill="#E6BE38" d="M220.1,144.6c-12.4-31.7-48.2-47.4-79.9-35c-31.7,12.4-47.4,48.2-35,79.9c12.4,31.7,48.2,47.4,79.9,35
					C216.8,212.2,232.5,176.4,220.1,144.6"/>
			</g>
			<g>
				<defs>
					<path id="SVGID_23_" d="M157.1,28.8l12.8,134.3L268,84.7c0,0,14.8,3.5-18.6-28.4c-26.1-24.9-67.6-27.7-84.6-27.7
						C160,28.6,157.1,28.8,157.1,28.8"/>
				</defs>
				<clipPath id="SVGID_24_">
					<use xlink:href="#SVGID_23_"  overflow="visible"/>
				</clipPath>
				<g clip-path="url(#SVGID_24_)">
					<path fill="#E1C339" d="M166.4,52.3c-14.3,0-28.4,2.7-41.8,7.9C95.8,71.4,73.1,93.4,60.7,122c-11.7,26.9-13,56.5-3.7,83.8
						L273,121.4C254.6,79.8,212.4,52.3,166.4,52.3 M51.2,218.9l-1.8-4.7c-12.1-31.1-11.4-65.3,2.1-96.2
						C64.9,86.8,89.6,63,120.9,50.8c14.6-5.7,29.9-8.6,45.5-8.6c51.8,0,99.2,32.2,117.9,80.2l1.8,4.7L51.2,218.9z"/>
				</g>
			</g>
			<g>
				<path fill="#5E9C9E" d="M176.9,204c-0.6,1.4-2.3,2-3.7,1.4c-0.7-0.3-1.2-0.9-1.4-1.5l-3.7-9.7c-0.4-1.2-1.8-1.6-3-1.2
					c-0.4,0.1-0.7-0.2-0.9,0.8h0c-0.4,0-0.8,0.8-1.2,1.2l-1.5,1.5c-4.2,4.1-9.2,7.4-15,9.6l-20,7.7l-10,3.8
					c-5.7,2.2-12.1-0.7-14.3-6.3l-19.9-51.7c-2.2-5.7,0.7-12.1,6.4-14.3l27.8-10.7c6.1-2.3,12.4-3,18.4-2.3
					c6.8,0.8,13,5.2,15.7,12.1c2.3,5.9,1.4,12.3-1.9,17.2c5.2,0,10.1,2.1,13.8,5.7l5-44.8c0.5-5.4,4-10.3,9.4-12.4
					c5.4-2.1,11.3-0.8,15.3,2.9l46,40.9c1.4,1.2,2.6,2.7,3.3,4.6c2.2,5.7-0.7,12.1-6.4,14.3c-4.2,1.6-8.7,0.5-11.7-2.5l0,0
					c-1.6-1.6-4.1-2.3-6.4-1.4l-28.6,11c-0.6,0.2-1,0.7-1.3,1.2L176.9,204z"/>
			</g>
			<g>
				<polygon fill="#E1C339" points="75.4,221.8 91.8,240.8 86,245.8 75.2,233.3 71.5,236.5 81.3,247.8 75.9,252.5 66.1,241.2 
					62.2,244.5 73.1,257.2 67.3,262.2 50.8,243.1 				"/>
			</g>
			<g>
				<polygon fill="#E1C339" points="93.8,243.2 102,248.3 97.2,269.5 114,255.7 122.1,260.6 94.2,281.9 87.4,277.7 				"/>
			</g>
			<g>
				<path fill="#E1C339" d="M140.6,282L140.6,282c1.2-4.6-1-9.4-5.6-10.6c-4.6-1.2-8.6,1.9-9.8,6.5l0,0.1c-1.2,4.5,1,9.3,5.5,10.5
					C135.4,289.6,139.5,286.6,140.6,282 M116.7,275.9L116.7,275.9c2.3-9.1,11.2-14.7,20.5-12.3c9.3,2.4,14.3,11.4,12,20.4l0,0.1
					c-2.3,9-11.2,14.6-20.5,12.2C119.4,293.9,114.4,284.9,116.7,275.9"/>
			</g>
			<g>
				<polygon fill="#E1C339" points="154.5,267.7 163.1,267.5 163.8,292.1 178.9,291.6 179.1,299.5 155.4,300.2 				"/>
			</g>
			<g>
				<path fill="#E1C339" d="M182.8,284.9l-5.2-17.5l8.4-2.5l5.1,17.3c1.3,4.5,4.1,6,7.5,5c3.3-1,4.9-3.7,3.6-8l-5.2-17.5l8.4-2.5
					l5.1,17.3c3,10.1-1.2,16.1-9.7,18.6C192.3,297.5,185.7,294.6,182.8,284.9"/>
			</g>
			<g>
				<path fill="#E1C339" d="M215,272.6L215,272.6c-5.2-8-3.3-18.1,4.6-23.2c5.3-3.4,10.3-3.3,14.8-1.4l-2.6,7.9
					c-2.8-1-5.3-1.1-7.8,0.5c-3.7,2.4-4.2,7.3-1.6,11.2l0,0.1c2.6,4.1,7.3,5.6,10.9,3.3c2.7-1.8,3.5-4.1,3.8-7.1l8.1,0.6
					c-0.2,5.1-1.8,9.9-7.6,13.6C230.1,282.9,220.2,280.8,215,272.6"/>
			</g>
			<g>
				
					<rect x="241.8" y="233.3" transform="matrix(-0.7134 0.7008 -0.7008 -0.7134 596.556 255.128)" fill="#E1C339" width="8.7" height="32.5"/>
			</g>
			<g>
				<path fill="#E1C339" d="M267.3,222.3L267.3,222.3c-4-2.6-9.2-2.1-11.8,1.9c-2.5,4-0.9,8.8,3,11.3l0.1,0.1c3.9,2.5,9.1,2,11.7-2
					C272.8,229.7,271.2,224.9,267.3,222.3 M253.9,243.1L253.9,243.1c-7.9-5.1-10.4-15.2-5.2-23.3c5.2-8.1,15.3-10,23.2-5l0.1,0.1
					c7.8,5,10.3,15.2,5.1,23.3C271.8,246.2,261.7,248.2,253.9,243.1"/>
			</g>
			<g>
				<polygon fill="#E1C339" points="258.4,205.1 260.5,197.3 280.4,189.5 263.9,184.9 266.1,176.7 297.5,185.3 295.5,192.5 
					274.8,200.7 292,205.4 289.7,213.6 				"/>
			</g>
			<g>
				<path fill="#E1C339" d="M285.6,159.5l-9.2,3.5l9.2,3.5L285.6,159.5z M265.8,167.1l0-8.3l32.7-13.3l0,9.2l-5.8,2.3l0,12l5.8,2.2
					l0,9.1L265.8,167.1z"/>
			</g>
		</g>
		<g>
			<g>
				<defs>
					<path id="SVGID_25_" d="M30.9,209.9c0.3,0.8,0.5,1.6,0.8,2.4c15.1,42.2,48.3,72.7,87.6,86.1c25.2,8.4,52.9,9.9,80.1,3.1
						c4.3-1.1,8.6-2.4,12.9-4c73.4-26.3,111.5-107.2,85.2-180.6c-0.3-0.8-0.6-1.6-0.9-2.4L30.9,209.9z"/>
				</defs>
				<clipPath id="SVGID_26_">
					<use xlink:href="#SVGID_25_"  overflow="visible"/>
				</clipPath>
				<g clip-path="url(#SVGID_26_)">
					<g>
						<defs>
							<rect id="SVGID_27_" x="31" y="114.8" width="293" height="193"/>
						</defs>
						<clipPath id="SVGID_28_">
							<use xlink:href="#SVGID_27_"  overflow="visible"/>
						</clipPath>
					</g>
				</g>
			</g>
			<g>
				<defs>
					<path id="SVGID_29_" d="M164.7,22.8c-15.8,0-31.9,2.9-47.7,8.6C43.6,57.8,5.4,138.7,31.8,212.1
						c26.3,73.4,107.2,111.6,180.6,85.3C285.8,271,323.9,190,297.6,116.6C276.9,58.9,222.6,22.8,164.7,22.8h0.3"/>
				</defs>
				<clipPath id="SVGID_30_">
					<use xlink:href="#SVGID_29_"  overflow="visible"/>
				</clipPath>
			</g>
			<g>
				<defs>
					<path id="SVGID_31_" d="M53.5,235.3l120-50L121.3,50.2C-24.1,144.2,53.5,235.3,53.5,235.3"/>
				</defs>
				<clipPath id="SVGID_32_">
					<use xlink:href="#SVGID_31_"  overflow="visible"/>
				</clipPath>
			</g>
			<g>
				<defs>
					<path id="SVGID_33_" d="M152.6,160.6l102.3,55.7c40.5-53.9,9.4-112.8,9.4-112.8L152.6,160.6z"/>
				</defs>
				<clipPath id="SVGID_34_">
					<use xlink:href="#SVGID_33_"  overflow="visible"/>
				</clipPath>
			</g>
			<g>
				<defs>
					<path id="SVGID_35_" d="M157.1,28.8l12.8,134.3L268,84.7c0,0,14.8,3.5-18.6-28.4c-26.1-24.9-67.6-27.7-84.6-27.7
						C160,28.6,157.1,28.8,157.1,28.8"/>
				</defs>
				<clipPath id="SVGID_36_">
					<use xlink:href="#SVGID_35_"  overflow="visible"/>
				</clipPath>
			</g>
		</g>
	</g>
</g>
</svg>
